<svg width="28" height="28" viewBox="0 0 28 28" fill="none" xmlns="http://www.w3.org/2000/svg">
<g clip-path="url(#clip0_6_285)">
<path d="M14 28C21.732 28 28 21.732 28 14C28 6.26801 21.732 0 14 0C6.26801 0 0 6.26801 0 14C0 21.732 6.26801 28 14 28Z" fill="#3B5998"/>
<path d="M19.25 28V17.5H22.75L23.625 13.125H19.25V11.375C19.25 9.625 20.1267 8.75 21.875 8.75H23.625V4.375C22.75 4.375 21.665 4.375 20.125 4.375C16.9094 4.375 14.875 6.89587 14.875 10.5V13.125H11.375V17.5H14.875V28H19.25Z" fill="white"/>
</g>
<defs>
<clipPath id="clip0_6_285">
<rect width="28" height="28" fill="white"/>
</clipPath>
</defs>
</svg>
