<svg width="33" height="33" viewBox="0 0 33 33" fill="none" xmlns="http://www.w3.org/2000/svg">
<path d="M30.3977 8.13934H18.3528V3.49459C18.3528 3.21757 18.2309 2.9555 18.0178 2.7789C17.8063 2.60243 17.5227 2.52611 17.256 2.58212L2.43194 5.36895C1.99275 5.45113 1.6759 5.83372 1.6759 6.28141V26.7199C1.6759 27.1658 1.99275 27.5502 2.43194 27.6323L17.256 30.4193C17.3115 30.4303 17.369 30.436 17.4265 30.436C17.6414 30.436 17.8507 30.3617 18.0177 30.2221C18.2309 30.0459 18.3528 29.7821 18.3528 29.5068V24.8618H30.3976C30.9093 24.8618 31.3241 24.4455 31.3241 23.9325V9.06856C31.3243 8.55596 30.9094 8.13934 30.3977 8.13934Z" fill="#0071C5"/>
<path d="M27.6978 9.99745H18.3528V12.1072L22.0055 14.4365L27.6978 9.99745Z" fill="white"/>
<path d="M22.6282 16.3056C22.4612 16.4358 22.2592 16.5006 22.059 16.5006C21.8867 16.5006 21.7125 16.4527 21.5622 16.3557L18.3528 14.309V23.0037H29.4713V10.9671L22.6282 16.3056Z" fill="white"/>
<path d="M10.0143 11.8554C7.46084 11.8554 5.38184 14.3565 5.38184 17.4296C5.38184 20.5029 7.46084 23.0038 10.0143 23.0038C12.5678 23.0038 14.647 20.5029 14.647 17.4296C14.647 14.3566 12.5678 11.8554 10.0143 11.8554ZM10.0143 21.1458C8.4819 21.1458 7.23493 19.4792 7.23493 17.4297C7.23493 15.3803 8.4819 13.7137 10.0143 13.7137C11.5468 13.7137 12.7942 15.3803 12.7942 17.4297C12.7942 19.4792 11.5468 21.1458 10.0143 21.1458Z" fill="white"/>
</svg>
