<svg width="27" height="27" viewBox="0 0 27 27" fill="none" xmlns="http://www.w3.org/2000/svg">
<path d="M26.1053 13.637C26.1053 12.7376 26.0183 11.8092 25.8732 10.9387H13.3102V16.0742H20.5056C20.2155 17.728 19.258 19.1787 17.8363 20.1071L22.1304 23.4437C24.6546 21.0936 26.1053 17.67 26.1053 13.637Z" fill="#4280EF"/>
<path d="M13.3101 26.6353C16.9078 26.6353 19.9253 25.4457 22.1303 23.4147L17.8363 20.1071C16.6467 20.9195 15.109 21.3837 13.3101 21.3837C9.82845 21.3837 6.89805 19.0336 5.82454 15.9001L1.41443 19.2947C3.67751 23.7919 8.2617 26.6353 13.3101 26.6353Z" fill="#34A353"/>
<path d="M5.82454 15.8711C5.27327 14.2173 5.27327 12.4184 5.82454 10.7647L1.41443 7.34102C-0.471476 11.1128 -0.471476 15.5519 1.41443 19.2947L5.82454 15.8711Z" fill="#F6B704"/>
<path d="M13.3101 5.28103C15.196 5.25202 17.0529 5.97737 18.4166 7.28299L22.2174 3.45316C19.8092 1.19008 16.6177 -0.0285075 13.3101 0.000506376C8.2617 0.000506376 3.67751 2.84387 1.41443 7.34102L5.82454 10.7647C6.89805 7.60214 9.82845 5.28103 13.3101 5.28103Z" fill="#E54335"/>
</svg>
