<svg width="95" height="95" viewBox="0 0 95 95" fill="none" xmlns="http://www.w3.org/2000/svg">
<path d="M85.3715 46.1004C85.941 67.2238 69.2777 84.8103 48.1517 85.3792C27.0341 85.947 9.44728 69.2825 8.88048 48.1597C8.30812 27.0347 24.9711 9.44704 46.091 8.87858C67.2155 8.30884 84.8018 24.9759 85.3715 46.1004Z" fill="url(#paint0_linear_6_389)"/>
<path d="M61.9153 37.3551C61.2846 32.2445 56.8153 30.646 51.2179 30.3072L51.0262 23.2L46.7001 23.317L46.8868 30.2369C45.7496 30.2677 44.5877 30.3215 43.4333 30.3756L43.2463 23.4099L38.9225 23.5263L39.1123 30.6315C38.1762 30.6759 37.2569 30.7181 36.36 30.7428L36.3589 30.7208L30.392 30.8795L30.5177 35.4999C30.5177 35.4999 33.7107 35.3529 33.6592 35.4132C35.4115 35.3665 36.0092 36.3684 36.1988 37.2418L36.4173 45.3384C36.5382 45.3358 36.6961 45.3366 36.8754 45.3563C36.7313 45.3604 36.577 45.3635 36.4184 45.3692L36.7229 56.7118C36.6609 57.2653 36.3604 58.1533 35.1362 58.1884C35.1929 58.236 31.9914 58.2723 31.9914 58.2723L31.2711 63.462L36.9009 63.3101C37.9486 63.2831 38.9799 63.2731 39.9921 63.2522L40.1876 70.4403L44.5091 70.3246L44.3173 63.2124C45.5045 63.205 46.6531 63.1835 47.7741 63.1523L47.963 70.2317L52.289 70.1147L52.0971 62.9393C59.3589 62.326 64.4 60.3565 64.8481 53.5096C65.2102 47.9963 62.5571 45.612 58.4018 44.7318C60.8756 43.3871 62.3831 41.0945 61.9153 37.3551ZM56.277 52.8881C56.4241 58.2598 47.2098 57.8966 44.278 57.9784L44.0224 48.4545C46.9553 48.3762 56.1264 47.2852 56.277 52.8881ZM53.9029 39.5054C54.0332 44.3927 46.347 44.029 43.9048 44.095L43.6724 35.4573C46.1145 35.3913 53.765 34.408 53.9029 39.5054Z" fill="white"/>
<defs>
<linearGradient id="paint0_linear_6_389" x1="0" y1="20.5096" x2="2051.2" y2="7395.18" gradientUnits="userSpaceOnUse">
<stop stop-color="#F9AA4B"/>
<stop offset="1" stop-color="#F7931A"/>
</linearGradient>
</defs>
</svg>
